<svg width="190" height="30" viewBox="0 0 190 30" fill="none" xmlns="http://www.w3.org/2000/svg">
<path d="M103.868 22.4969C100.691 25.3731 97.6276 26.8362 94.7639 26.8362C90.2183 26.8362 87.5047 23.8787 87.5047 18.9329C87.5047 18.2013 87.5547 17.4573 87.6485 16.7257H94.0011C97.6026 16.7257 108.063 14.1622 108.063 6.30888C108.063 1.65069 103.493 0 99.5847 0C89.8619 0 81.002 8.82868 81.002 18.5265C81.002 25.0667 86.2666 30 93.2446 30C97.5776 30 101.842 28.1367 105.925 24.4727L106.137 24.2851L104.055 22.3468L103.88 22.5031L103.868 22.4969ZM99.047 2.45102C101.135 2.45102 102.43 3.77032 102.43 5.89621C102.43 8.72864 100.71 10.9546 97.315 12.5052C94.6952 13.7057 91.9878 14.0371 91.7627 14.0371H88.0736C88.9428 9.21009 93.5259 2.45727 99.047 2.45727" fill="#E8380D"/>
<path d="M13.9621 22.0093V16.1631C13.9621 15.3252 13.4806 14.7812 12.7303 14.7812H9.84785V22.0093H0V23.191C0 24.0289 0.48145 24.5666 1.23802 24.5666H24.679C25.4293 24.5666 25.917 24.0226 25.917 23.191V22.0093H13.9683H13.9621Z" fill="white"/>
<path d="M4.69505 4.65771H17.5692C18.3257 4.65771 18.8009 5.20169 18.8009 6.04579V9.34717H3.65711V10.5414C3.65711 11.3855 4.14482 11.9295 4.90138 11.9295H18.8072V17.7507H21.5958C22.3524 17.7507 22.8339 17.2067 22.8339 16.3626V6.80861C22.8339 6.73983 22.8401 6.6648 22.8401 6.59602V5.68939C22.8401 3.50098 21.5708 2.08789 19.6075 2.08789H3.45703V3.28214C3.45703 4.12624 3.94473 4.67022 4.7013 4.67022" fill="white"/>
<path d="M32.6572 18.8133V13.0359H40.2354C40.9919 13.0359 41.4796 12.492 41.4796 11.6479V4.10097C41.4796 3.25687 40.9919 2.71289 40.2354 2.71289H28.8118V3.82585C28.8118 4.6637 29.2995 5.20768 30.0561 5.20768H37.3341V10.5349H28.5117V18.2506C28.5117 20.439 29.781 21.8584 31.7381 21.8584H42.3425C43.0928 21.8584 43.5868 21.3144 43.5868 20.4703V19.3636H33.1574C32.8573 19.3636 32.6635 19.1447 32.6635 18.8071" fill="white"/>
<path d="M49.6455 0.443359H45.5V29.5055H49.6455V0.443359Z" fill="black"/>
<path d="M48.4012 0.443359H45.5V29.5055H48.4012C49.1578 29.5055 49.6455 28.9615 49.6455 28.1174V1.83144C49.6455 0.987336 49.1578 0.443359 48.4012 0.443359Z" fill="white"/>
<path d="M60.7937 2.29492C55.9042 2.29492 53.4219 6.25282 53.4219 12.3741C53.4219 18.4954 55.8979 22.4533 60.7937 22.4533C65.6895 22.4533 68.1655 18.4954 68.1655 12.3741C68.1655 6.25282 65.6832 2.29492 60.7937 2.29492ZM60.7937 19.5208C58.5428 19.5208 57.6111 16.7134 57.6111 12.3741C57.6111 8.03481 58.5428 5.22739 60.7937 5.22739C63.0446 5.22739 63.9763 8.03481 63.9763 12.3741C63.9763 16.7134 63.0384 19.5208 60.7937 19.5208Z" fill="white"/>
<path d="M74.6181 11.5355V1.83144C74.6181 0.987336 74.1304 0.443359 73.3739 0.443359H70.4727V29.5055H73.3739C74.1304 29.5055 74.6181 28.9615 74.6181 28.1174V14.0115H77.2817C78.0883 14.0115 78.6135 13.4863 78.6135 12.6797V11.5355H74.6181Z" fill="white"/>
<path d="M127.816 21.8409V19.8964H115.036C114.167 19.8964 113.598 19.3337 113.598 18.4645V17.3203H130.886C131.755 17.3203 132.318 17.883 132.318 18.7522V22.9914C132.318 23.8605 131.755 24.4233 130.886 24.4233H118.1V26.2303C118.1 26.5804 118.325 26.8055 118.675 26.8055H132.462V27.9497C132.462 28.8189 131.899 29.3816 131.03 29.3816H117.33C115.067 29.3816 113.604 27.9185 113.604 25.655V21.8409H127.822H127.816Z" fill="white"/>
<path d="M129.411 7.99678V3.38236H131.03C131.9 3.38236 132.462 2.81963 132.462 1.95051V0.71875H113.454V1.95051C113.454 2.81963 114.017 3.38236 114.886 3.38236H116.793V7.99678H113.311V9.22855C113.311 10.0977 113.873 10.6604 114.749 10.6604H131.174C132.043 10.6604 132.606 10.0977 132.606 9.22855V7.99678H129.411ZM125.253 7.99678H120.951V3.38236H125.253V7.99678Z" fill="white"/>
<path d="M135.899 12.5117H110.014V15.1753H135.899V12.5117Z" fill="black"/>
<path d="M135.901 12.5117V13.7435C135.901 14.6126 135.338 15.1753 134.469 15.1753H111.453C110.584 15.1753 110.021 14.6126 110.021 13.7435V12.5117H135.907H135.901Z" fill="white"/>
<path d="M160.055 0.932034H157.623V7.9287H155.122V2.31386C155.122 1.46976 154.634 0.925781 153.878 0.925781H151.445V16.8949H153.878C154.634 16.8949 155.122 16.351 155.122 15.5069V10.1671H157.623V16.9637H160.055C160.812 16.9637 161.299 16.4197 161.299 15.5819V2.31386C161.299 1.46976 160.812 0.925781 160.055 0.925781" fill="white"/>
<path d="M150.099 15.5806V14.4739H142.671C142.365 14.4739 142.171 14.2551 142.171 13.9174V10.6598H147.379C148.136 10.6598 148.624 10.1159 148.624 9.27175V3.45058C148.624 2.60648 148.136 2.0625 147.379 2.0625H138.2V3.16921C138.2 4.01331 138.688 4.55729 139.445 4.55729H144.478V8.16504H138.025V13.361C138.025 15.5494 139.295 16.9625 141.258 16.9625H148.861C149.611 16.9625 150.099 16.4185 150.099 15.5744" fill="white"/>
<path d="M162.937 27.3733C162.937 27.3733 162.624 27.8922 162.249 28.5363C161.83 29.2365 161.005 29.6555 160.161 29.5054C156.497 28.8614 153.233 27.1107 151.238 24.7659C149.244 27.1107 145.98 28.8614 142.316 29.5054C141.472 29.6555 140.64 29.2428 140.221 28.5363C139.84 27.8922 139.527 27.3733 139.527 27.3733C143.498 26.2666 149.013 24.0219 149.013 19.8139V18.3945H152.045C152.902 18.3945 153.458 18.951 153.458 19.8139C153.458 24.0219 158.973 26.2666 162.943 27.3733" fill="white"/>
<path d="M178.449 14.0805V10.9104H184.914C185.783 10.9104 186.346 10.3477 186.346 9.47855V8.24678H183.151V3.63236H184.771C185.64 3.63236 186.202 3.06963 186.202 2.20051V0.96875H167.019V2.20051C167.019 3.06963 167.582 3.63236 168.457 3.63236H170.365V8.24678H166.882V9.47855C166.882 10.3477 167.445 10.9104 168.314 10.9104H174.773V14.0805H163.668V15.3122C163.668 16.1813 164.231 16.7441 165.1 16.7441H188.122C188.991 16.7441 189.554 16.1813 189.554 15.3122V14.0805H178.449ZM174.51 3.62611H178.987V8.24053H174.51V3.62611Z" fill="white"/>
<path d="M182.208 19.207H167.602V25.6472C167.602 27.7168 168.94 29.0549 171.015 29.0549H182.214C184.29 29.0549 185.628 27.7168 185.628 25.6472V22.6147C185.628 20.5451 184.29 19.207 182.214 19.207M181.501 25.3033C181.501 26.0974 180.988 26.6164 180.188 26.6164H173.029C172.229 26.6164 171.716 26.1037 171.716 25.3033V21.6455H180.188C180.988 21.6455 181.501 22.1645 181.501 22.9586V25.3033Z" fill="white"/>
</svg>
