<svg width="190" height="30" viewBox="0 0 190 30" fill="none" xmlns="http://www.w3.org/2000/svg">
<path d="M103.866 22.4969C100.689 25.3731 97.6257 26.8362 94.762 26.8362C90.2163 26.8362 87.5027 23.8787 87.5027 18.9329C87.5027 18.2013 87.5527 17.4573 87.6465 16.7257H93.9992C97.6007 16.7257 108.061 14.1622 108.061 6.30888C108.061 1.65069 103.491 0 99.5827 0C89.8599 0 81 8.82868 81 18.5265C81 25.0667 86.2647 30 93.2426 30C97.5757 30 101.84 28.1367 105.923 24.4727L106.135 24.2851L104.053 22.3468L103.878 22.5031L103.866 22.4969ZM99.045 2.45102C101.133 2.45102 102.428 3.77032 102.428 5.89621C102.428 8.72864 100.708 10.9546 97.313 12.5052C94.6932 13.7057 91.9858 14.0371 91.7607 14.0371H88.0717C88.9408 9.21009 93.524 2.45727 99.045 2.45727" fill="#E8380D"/>
<path d="M13.9621 22.0093V16.1631C13.9621 15.3252 13.4806 14.7812 12.7303 14.7812H9.84785V22.0093H0V23.191C0 24.0289 0.48145 24.5666 1.23802 24.5666H24.679C25.4293 24.5666 25.917 24.0226 25.917 23.191V22.0093H13.9683H13.9621Z" fill="#4C4948"/>
<path d="M4.69895 4.65771H17.5731C18.3296 4.65771 18.8048 5.20169 18.8048 6.04579V9.34717H3.66102V10.5414C3.66102 11.3855 4.14872 11.9295 4.90529 11.9295H18.8111V17.7507H21.5997C22.3563 17.7507 22.8378 17.2067 22.8378 16.3626V6.80861C22.8378 6.73983 22.844 6.6648 22.844 6.59602V5.68939C22.844 3.50098 21.5747 2.08789 19.6114 2.08789H3.46094V3.28214C3.46094 4.12624 3.94864 4.67022 4.70521 4.67022" fill="#4C4948"/>
<path d="M32.6611 18.8143V13.0369H40.2393C40.9958 13.0369 41.4835 12.4929 41.4835 11.6488V4.10195C41.4835 3.25784 40.9958 2.71387 40.2393 2.71387H28.8158V3.82683C28.8158 4.66468 29.3035 5.20866 30.06 5.20866H37.3381V10.5359H28.5156V18.2516C28.5156 20.44 29.7849 21.8593 31.742 21.8593H42.3464C43.0967 21.8593 43.5907 21.3154 43.5907 20.4713V19.3646H33.1613C32.8612 19.3646 32.6674 19.1457 32.6674 18.8081" fill="#4C4948"/>
<path d="M49.6455 0.444336H45.5V29.5064H49.6455V0.444336Z" fill="black"/>
<path d="M48.4012 0.444336H45.5V29.5064H48.4012C49.1578 29.5064 49.6455 28.9625 49.6455 28.1184V1.83241C49.6455 0.988313 49.1578 0.444336 48.4012 0.444336Z" fill="#4C4948"/>
<path d="M60.7937 2.29492C55.9042 2.29492 53.4219 6.25282 53.4219 12.3741C53.4219 18.4954 55.8979 22.4533 60.7937 22.4533C65.6895 22.4533 68.1655 18.4954 68.1655 12.3741C68.1655 6.25282 65.6832 2.29492 60.7937 2.29492ZM60.7937 19.5208C58.5428 19.5208 57.6111 16.7134 57.6111 12.3741C57.6111 8.03481 58.5428 5.22739 60.7937 5.22739C63.0446 5.22739 63.9763 8.03481 63.9763 12.3741C63.9763 16.7134 63.0384 19.5208 60.7937 19.5208Z" fill="#4C4948"/>
<path d="M74.622 11.5365V1.83241C74.622 0.988313 74.1343 0.444336 73.3778 0.444336H70.4766V29.5064H73.3778C74.1343 29.5064 74.622 28.9625 74.622 28.1184V14.0125H77.2856C78.0922 14.0125 78.6175 13.4873 78.6175 12.6807V11.5365H74.622Z" fill="#4C4948"/>
<path d="M127.812 21.84V19.8954H115.032C114.163 19.8954 113.594 19.3327 113.594 18.4636V17.3193H130.882C131.751 17.3193 132.314 17.8821 132.314 18.7512V22.9904C132.314 23.8596 131.751 24.4223 130.882 24.4223H118.096V26.2293C118.096 26.5794 118.321 26.8045 118.671 26.8045H132.458V27.9488C132.458 28.8179 131.895 29.3806 131.026 29.3806H117.327C115.063 29.3806 113.6 27.9175 113.6 25.6541V21.84H127.818H127.812Z" fill="#4C4948"/>
<path d="M129.413 7.99678V3.38236H131.032C131.901 3.38236 132.464 2.81963 132.464 1.95051V0.71875H113.456V1.95051C113.456 2.81963 114.019 3.38236 114.888 3.38236H116.795V7.99678H113.312V9.22855C113.312 10.0977 113.875 10.6604 114.751 10.6604H131.176C132.045 10.6604 132.608 10.0977 132.608 9.22855V7.99678H129.413ZM125.255 7.99678H120.953V3.38236H125.255V7.99678Z" fill="#4C4948"/>
<path d="M135.901 12.5117H110.016V15.1753H135.901V12.5117Z" fill="black"/>
<path d="M135.903 12.5117V13.7435C135.903 14.6126 135.34 15.1753 134.471 15.1753H111.455C110.586 15.1753 110.023 14.6126 110.023 13.7435V12.5117H135.909H135.903Z" fill="#4C4948"/>
<path d="M160.055 0.932034H157.623V7.9287H155.122V2.31386C155.122 1.46976 154.634 0.925781 153.878 0.925781H151.445V16.8949H153.878C154.634 16.8949 155.122 16.351 155.122 15.5069V10.1671H157.623V16.9637H160.055C160.812 16.9637 161.299 16.4197 161.299 15.5819V2.31386C161.299 1.46976 160.812 0.925781 160.055 0.925781" fill="#4C4948"/>
<path d="M150.097 15.5816V14.4749H142.669C142.363 14.4749 142.169 14.2561 142.169 13.9184V10.6608H147.377C148.134 10.6608 148.622 10.1168 148.622 9.27273V3.45156C148.622 2.60745 148.134 2.06348 147.377 2.06348H138.199V3.17019C138.199 4.01429 138.686 4.55827 139.443 4.55827H144.476V8.16602H138.023V13.3619C138.023 15.5503 139.293 16.9634 141.256 16.9634H148.859C149.61 16.9634 150.097 16.4195 150.097 15.5754" fill="#4C4948"/>
<path d="M162.933 27.3742C162.933 27.3742 162.621 27.8932 162.245 28.5372C161.826 29.2375 161.001 29.6564 160.157 29.5064C156.493 28.8624 153.229 27.1116 151.235 24.7669C149.24 27.1116 145.976 28.8624 142.312 29.5064C141.468 29.6564 140.636 29.2438 140.217 28.5372C139.836 27.8932 139.523 27.3742 139.523 27.3742C143.494 26.2675 149.009 24.0229 149.009 19.8148V18.3955H152.041C152.898 18.3955 153.454 18.952 153.454 19.8148C153.454 24.0229 158.969 26.2675 162.939 27.3742" fill="#4C4948"/>
<path d="M178.453 14.0805V10.9104H184.918C185.787 10.9104 186.35 10.3477 186.35 9.47855V8.24678H183.155V3.63236H184.774C185.644 3.63236 186.206 3.06963 186.206 2.20051V0.96875H167.023V2.20051C167.023 3.06963 167.586 3.63236 168.461 3.63236H170.368V8.24678H166.886V9.47855C166.886 10.3477 167.448 10.9104 168.318 10.9104H174.776V14.0805H163.672V15.3122C163.672 16.1813 164.235 16.7441 165.104 16.7441H188.126C188.995 16.7441 189.558 16.1813 189.558 15.3122V14.0805H178.453ZM174.514 3.62611H178.991V8.24053H174.514V3.62611Z" fill="#4C4948"/>
<path d="M182.208 19.208H167.602V25.6482C167.602 27.7178 168.94 29.0559 171.015 29.0559H182.214C184.29 29.0559 185.628 27.7178 185.628 25.6482V22.6157C185.628 20.5461 184.29 19.208 182.214 19.208M181.501 25.3043C181.501 26.0984 180.988 26.6173 180.188 26.6173H173.029C172.229 26.6173 171.716 26.1046 171.716 25.3043V21.6465H180.188C180.988 21.6465 181.501 22.1655 181.501 22.9596V25.3043Z" fill="#4C4948"/>
</svg>
